<svg aria-hidden="true" focusable="false" data-prefix="fas" data-icon="tasks" role="img" xmlns="http://www.w3.org/2000/svg" viewBox="0 0 512 512">
  <path
    fill="currentColor"
    d="M139.61 35.5A12 12 0 0 0 122.61 35.5L58.93 98.81 36.23 76.69A12 12 0 0 0 19.23 76.69L3.53 92.41A12 12 0 0 0 3.53 109.41L51.12 156.81A12.78 12.78 0 0 0 68.73 156.81L84.32 141.19 156.52 69A12.09 12.09 0 0 0 156.61 52ZM139.61 194.69A12 12 0 0 0 122.61 194.69L58.93 258.41 36.23 236.31A12 12 0 0 0 19.23 236.31L3.53 252A12 12 0 0 0 3.53 269L51 316.5A12.77 12.77 0 0 0 68.6 316.5L84.3 300.81 156.5 228.59A12 12 0 0 0 156.59 211.69ZM140 354A12 12 0 0 0 123 354L59 417 36 395A12 12 0 0 0 19 395L4 411A12 12 0 0 0 4 428L51 476A13 13 0 0 0 69 476L84 460 157 388A12 12 0 0 0 157 371ZM496 384H208A16 16 0 0 0 192 400V432A16 16 0 0 0 208 448H496A16 16 0 0 0 512 432V400A16 16 0 0 0 496 384ZM496 64H208A16 16 0 0 0 192 80V112A16 16 0 0 0 208 128H496A16 16 0 0 0 512 112V80A16 16 0 0 0 496 64ZM496 224H208A16 16 0 0 0 192 240V272A16 16 0 0 0 208 288H496A16 16 0 0 0 512 272V240A16 16 0 0 0 496 224Z"
    class=""></path>
</svg>
