<svg xmlns="http://www.w3.org/2000/svg" width="512" height="512" viewBox="0 0 512 512" version="1.1">
	<path d="M 18.607 4.582 C 18.273 5.452, 18 77.902, 18 165.582 L 18 325 48 325 L 78 325 78 255 L 78 185 153.500 185 L 229 185 229.076 253.250 C 229.118 290.788, 229.005 324.650, 228.826 328.500 C 228.242 341.032, 228.867 370.352, 229.848 376.500 C 231.677 387.966, 233.256 395.506, 234.036 396.500 C 234.468 397.050, 235.145 399.300, 235.541 401.500 C 235.937 403.700, 236.593 405.950, 236.999 406.500 C 237.406 407.050, 238.292 409.864, 238.970 412.753 C 239.647 415.642, 240.606 418.256, 241.100 418.562 C 241.595 418.868, 242 419.759, 242 420.543 C 242 424.312, 258.117 453, 260.234 453 C 260.655 453, 261 453.573, 261 454.274 C 261 455.964, 284.946 479.848, 289.257 482.458 C 291.113 483.581, 295.076 486.116, 298.065 488.092 C 301.054 490.067, 307.100 493.359, 311.500 495.407 C 315.900 497.454, 320.850 499.760, 322.500 500.530 C 324.150 501.301, 326.850 502.234, 328.500 502.603 C 330.150 502.973, 331.961 503.635, 332.525 504.074 C 333.089 504.512, 336.014 505.185, 339.025 505.569 C 342.036 505.952, 344.950 506.612, 345.500 507.035 C 346.050 507.457, 349.650 508.147, 353.500 508.566 C 362.922 509.593, 364.500 509.801, 364.500 510.019 C 364.500 510.574, 401.662 510.463, 402.500 509.906 C 403.050 509.539, 407.280 508.960, 411.900 508.617 C 416.521 508.275, 420.796 507.606, 421.400 507.131 C 422.005 506.655, 424.964 505.952, 427.975 505.569 C 430.986 505.185, 433.911 504.512, 434.475 504.074 C 435.039 503.635, 436.850 502.973, 438.500 502.603 C 440.150 502.234, 442.850 501.295, 444.500 500.518 C 446.150 499.741, 450.001 497.984, 453.058 496.614 C 456.115 495.244, 460.998 492.520, 463.909 490.561 C 466.819 488.603, 469.431 487, 469.712 487 C 469.993 487, 472.372 485.200, 475 483 C 477.628 480.800, 480.278 479, 480.889 479 C 481.500 479, 482 478.325, 482 477.500 C 482 476.675, 482.578 476, 483.284 476 C 484.435 476, 491.743 468.928, 496.320 463.384 C 498.010 461.337, 497.960 461.143, 494.784 457.416 C 486.175 447.316, 473.150 434.322, 470.049 432.739 C 465.214 430.272, 461.548 431.706, 452.487 439.608 C 448.456 443.124, 444.835 446, 444.440 446 C 444.045 446, 441.517 447.356, 438.823 449.014 C 436.129 450.672, 431.917 452.565, 429.462 453.221 C 427.008 453.878, 425 454.714, 425 455.079 C 425 455.444, 422.649 456.054, 419.775 456.435 C 416.901 456.817, 413.907 457.662, 413.121 458.314 C 411.025 460.054, 364.831 459.994, 364.250 458.250 C 364.021 457.562, 362.717 457, 361.352 457 C 358.574 457, 351.031 454.161, 343.500 450.280 C 340.750 448.863, 337.491 447.208, 336.258 446.602 C 335.025 445.996, 334.012 445.163, 334.008 444.750 C 334.004 444.337, 333.403 444, 332.674 444 C 331.945 444, 330.292 442.875, 329 441.500 C 327.708 440.125, 326.242 439, 325.742 439 C 323.299 439, 308.520 420.684, 304.763 413 C 304.091 411.625, 303.306 410.275, 303.019 410 C 301.873 408.901, 298 400.181, 298 398.699 C 298 397.830, 297.595 396.868, 297.100 396.562 C 296.606 396.256, 295.647 393.642, 294.970 390.753 C 294.292 387.864, 293.369 385.030, 292.918 384.457 C 292.467 383.883, 291.791 380.283, 291.415 376.457 C 291.039 372.630, 290.285 368.935, 289.739 368.245 C 288.346 366.483, 288.374 330.402, 289.772 326 C 290.383 324.075, 291.316 320.025, 291.844 317 C 292.372 313.975, 293.547 309.025, 294.454 306 C 295.362 302.975, 296.236 300.050, 296.398 299.500 C 298.200 293.377, 302.983 284.181, 308.750 275.748 C 310.538 273.134, 312 270.730, 312 270.405 C 312 269.589, 324.808 256.842, 327.480 255 C 338.264 247.564, 345.846 242.973, 348.192 242.458 C 349.737 242.119, 351 241.466, 351 241.008 C 351 240.550, 352.798 239.872, 354.995 239.501 C 357.192 239.130, 359.220 238.453, 359.501 237.998 C 359.783 237.542, 363.392 236.853, 367.521 236.466 C 371.650 236.079, 375.274 235.366, 375.573 234.881 C 376.285 233.730, 409.715 233.730, 410.427 234.882 C 410.727 235.367, 413.899 236.077, 417.476 236.460 C 421.052 236.844, 424.235 237.572, 424.548 238.078 C 424.862 238.585, 425.879 239.015, 426.809 239.034 C 427.739 239.053, 430.300 239.937, 432.500 241 C 434.700 242.063, 437.081 242.947, 437.790 242.966 C 438.500 242.985, 440.300 243.851, 441.790 244.892 C 445.949 247.795, 459.211 256.265, 461.864 257.711 C 465.279 259.573, 473.083 259.290, 475.508 257.217 C 478.463 254.689, 485 246.457, 485 245.262 C 485 244.694, 487.025 241.770, 489.500 238.764 C 491.975 235.757, 494 233.026, 494 232.694 C 494 232.362, 495.125 230.966, 496.500 229.591 C 499.883 226.208, 499.657 224.585, 495.250 220.626 C 490.053 215.958, 479.012 207.703, 476 206.234 C 473.290 204.912, 469.800 202.801, 469 201.999 C 467.825 200.822, 459.141 197, 457.640 197 C 456.738 197, 456 196.559, 456 196.019 C 456 195.480, 454.762 194.743, 453.250 194.383 C 451.738 194.023, 449.375 193.149, 448 192.442 C 440.964 188.821, 424.084 185.227, 408.767 184.089 C 395.443 183.099, 369.501 183.662, 367.011 184.994 C 366.050 185.509, 365.014 185.681, 364.711 185.377 C 363.662 184.329, 334.801 190.822, 334.167 192.250 C 333.983 192.662, 333.066 193, 332.128 193 C 331.190 193, 328.709 193.874, 326.614 194.942 C 324.519 196.010, 321.499 197.171, 319.902 197.521 C 318.306 197.872, 317 198.524, 317 198.971 C 317 199.418, 315.767 200.093, 314.260 200.471 C 312.753 200.849, 311.289 201.460, 311.007 201.829 C 310.725 202.198, 308.471 203.582, 305.997 204.905 C 303.524 206.227, 298.881 209.040, 295.679 211.155 C 292.478 213.270, 289.667 215, 289.434 215 C 289.200 215, 288.895 167.412, 288.755 109.250 L 288.500 3.500 258.750 3.235 L 229 2.970 229 72.485 L 229 142 153.500 142 L 78 142 78 72.500 L 78 3 48.607 3 C 22.727 3, 19.141 3.189, 18.607 4.582" stroke="none" fill="black" fill-rule="evenodd"/>
</svg>